<?xml version="1.0" standalone="no"?>
  <!DOCTYPE svg PUBLIC "-//W3C//DTD SVG 1.1//EN" "http://www.w3.org/Graphics/SVG/1.1/DTD/svg11.dtd" >
  <svg>
  <metadata>
  Created by font-carrier
  </metadata>
  <defs>
  <font id="iconfont" horiz-adv-x="1024" vert-adv-y="1024" >
    <font-face
      
      font-family="fa"
      
      font-weight="400"
      
      font-stretch="normal"
      
      units-per-em="1024"
      
      ascent="812"
      
      descent="-212"
      
    />
      <missing-glyph />
      <glyph glyph-name="x" unicode="x" horiz-adv-x="1001"
        d="M281 543q-27 -1 -53 -1h-83q-18 0 -36.5 -6t-32.5 -18.5t-23 -32t-9 -45.5v-76h912v41q0 16 -0.5 30t-0.5 18q0 13 -5 29t-17 29.5t-31.5 22.5t-49.5 9h-133v-97h-438v97zM955 310v-52q0 -23 0.5 -52t0.5 -58t-10.5 -47.5t-26 -30t-33 -16t-31.5 -4.5q-14 -1 -29.5 -0.5
        t-29.5 0.5h-32l-45 128h-439l-44 -128h-29h-34q-20 0 -45 1q-25 0 -41 9.5t-25.5 23t-13.5 29.5t-4 30v167h911zM163 247q-12 0 -21 -8.5t-9 -21.5t9 -21.5t21 -8.5q13 0 22 8.5t9 21.5t-9 21.5t-22 8.5zM316 123q-8 -26 -14 -48q-5 -19 -10.5 -37t-7.5 -25t-3 -15t1 -14.5
        t9.5 -10.5t21.5 -4h37h67h81h80h64h36q23 0 34 12t2 38q-5 13 -9.5 30.5t-9.5 34.5q-5 19 -11 39h-368zM336 498v228q0 11 2.5 23t10 21.5t20.5 15.5t34 6h188q31 0 51.5 -14.5t20.5 -52.5v-227h-327z" />
      
      <glyph glyph-name="uniF106" unicode="&#xF106;" d="M614.2857 86.1429q0-7.4286-5.7143-13.1429l-28.5714-28.5714q-5.7143-5.7143-13.1429-5.7143t-13.1428 5.7143l-224.5714 224.5714-224.5715-224.5714q-5.7143-5.7143-13.1428-5.7143t-13.1429 5.7143l-28.5714 28.5714q-5.7143 5.7143-5.7143 13.1429t5.7143 13.1428l266.2857 266.2857q5.7143 5.7143 13.1429 5.7143t13.1428-5.7143l266.2857-266.2857q5.7143-5.7143 5.7143-13.1428z"  horiz-adv-x="658" vert-adv-y="1024"  />

      
      <glyph glyph-name="uniF107" unicode="&#xF107;" d="M614.2857 342.1429q0-7.4286-5.7143-13.1429l-266.2857-266.2857q-5.7143-5.7143-13.1428-5.7143t-13.1429 5.7143l-266.2857 266.2857q-5.7143 5.7143-5.7143 13.1429t5.7143 13.1428l28.5714 28.5714q5.7143 5.7143 13.1429 5.7143t13.1428-5.7143l224.5715-224.5714 224.5714 224.5714q5.7143 5.7143 13.1428 5.7143t13.1429-5.7143l28.5714-28.5714q5.7143-5.7143 5.7143-13.1428z"  horiz-adv-x="658" vert-adv-y="1024"  />

      
      <glyph glyph-name="uniF067" unicode="&#xF067;" d="M804.5714 342.1429v-109.7143q0-22.8571-16-38.8572t-38.8571-16h-237.7143v-237.7143q0-22.8571-16-38.8571t-38.8571-16h-109.7143q-22.8571 0-38.8572 16t-16 38.8571v237.7143h-237.7143q-22.8571 0-38.8571 16t-16 38.8572v109.7143q0 22.8571 16 38.8571t38.8571 16h237.7143v237.7143q0 22.8571 16 38.8571t38.8572 16h109.7143q22.8571 0 38.8571-16t16-38.8571v-237.7143h237.7143q22.8571 0 38.8571-16t16-38.8571z"  horiz-adv-x="804" vert-adv-y="1024"  />

      
      <glyph glyph-name="uniF0D7" unicode="&#xF0D7;" d="M585.1429 360.4286q0-14.8571-10.8572-25.7143l-256-256q-10.8571-10.8571-25.7143-10.8572t-25.7143 10.8572l-256 256q-10.8571 10.8571-10.8571 25.7143t10.8571 25.7143 25.7143 10.8571h512q14.8571 0 25.7143-10.8571t10.8572-25.7143z"  horiz-adv-x="585" vert-adv-y="1024"  />

      
      <glyph glyph-name="uniF00D" unicode="&#xF00D;" d="M741.7143 7.2857q0-22.8571-16-38.8571l-77.7143-77.7143q-16-16-38.8571-16t-38.8572 16l-168 168-168-168q-16-16-38.8571-16t-38.8572 16l-77.7143 77.7143q-16 16-16 38.8571t16 38.8572l168 168-168 168q-16 16-16 38.8571t16 38.8571l77.7143 77.7143q16 16 38.8572 16t38.8571-16l168-168 168 168q16 16 38.8572 16t38.8571-16l77.7143-77.7143q16-16 16-38.8571t-16-38.8571l-168-168 168-168q16-16 16-38.8572z"  horiz-adv-x="804" vert-adv-y="1024"  />

      
      <glyph glyph-name="uniF04C" unicode="&#xF04C;" d="M877.7143 653v-804.5714q0-14.8571-10.8572-25.7143t-25.7142-10.8572h-292.5715q-14.8571 0-25.7143 10.8572t-10.8571 25.7143v804.5714q0 14.8571 10.8571 25.7143t25.7143 10.8571h292.5715q14.8571 0 25.7142-10.8571t10.8572-25.7143zM365.7143 653v-804.5714q0-14.8571-10.8572-25.7143t-25.7142-10.8572h-292.5715q-14.8571 0-25.7143 10.8572t-10.8571 25.7143v804.5714q0 14.8571 10.8571 25.7143t25.7143 10.8571h292.5715q14.8571 0 25.7142-10.8571t10.8572-25.7143z"  horiz-adv-x="877" vert-adv-y="1024"  />

      
      <glyph glyph-name="uniF111" unicode="&#xF111;" d="M877.7143 250.7143q0-119.4286-58.8572-220.2857t-159.7142-159.7143-220.2858-58.8572-220.2857 58.8572-159.7143 159.7143-58.8571 220.2857 58.8571 220.2857 159.7143 159.7143 220.2857 58.8571 220.2858-58.8571 159.7142-159.7143 58.8572-220.2857z"  horiz-adv-x="877" vert-adv-y="1024"  />

      
      <glyph glyph-name="uniF014" unicode="&#xF014;" d="M292.5714 342.1429v-329.1429q0-8-5.1428-13.1429t-13.1429-5.1428h-36.5714q-8 0-13.1429 5.1428t-5.1428 13.1429v329.1429q0 8 5.1428 13.1428t13.1429 5.1429h36.5714q8 0 13.1429-5.1429t5.1428-13.1428zM438.8571 342.1429v-329.1429q0-8-5.1428-13.1429t-13.1429-5.1428h-36.5714q-8 0-13.1429 5.1428t-5.1428 13.1429v329.1429q0 8 5.1428 13.1428t13.1429 5.1429h36.5714q8 0 13.1429-5.1429t5.1428-13.1428zM585.1429 342.1429v-329.1429q0-8-5.1429-13.1429t-13.1429-5.1428h-36.5714q-8 0-13.1428 5.1428t-5.1429 13.1429v329.1429q0 8 5.1429 13.1428t13.1428 5.1429h36.5714q8 0 13.1429-5.1429t5.1429-13.1428zM658.2857-71.5714v541.7143h-512v-541.7143q0-12.5714 4-23.1429t8.2857-15.4286 6-4.8571h475.4286q1.7143 0 6 4.8571t8.2857 15.4286 4 23.1429zM274.2857 543.2857h256l-27.4286 66.8572q-4 5.1429-9.7142 6.2857h-181.1429q-5.7143-1.1429-9.7143-6.2857zM804.5714 525v-36.5714q0-8-5.1428-13.1429t-13.1429-5.1428h-54.8571v-541.7143q0-47.4286-26.8572-82t-64.5714-34.5715h-475.4286q-37.7143 0-64.5714 33.4286t-26.8571 80.8572v544h-54.8572q-8 0-13.1428 5.1428t-5.1429 13.1429v36.5714q0 8 5.1429 13.1429t13.1428 5.1428h176.5714l40 95.4286q8.5714 21.1429 30.8572 36t45.1428 14.8571h182.8572q22.8571 0 45.1428-14.8571t30.8572-36l40-95.4286h176.5714q8 0 13.1429-5.1428t5.1428-13.1429z"  horiz-adv-x="804" vert-adv-y="1024"  />

      
      <glyph glyph-name="uniF098" unicode="&#xF098;" d="M731.4286 81q0 6.2857-1.1429 9.1429-1.7143 4.5714-22 16.8571t-50.5714 28.2857l-30.2857 16.5714q-2.8571 1.7143-10.8572 7.4286t-14.2857 8.5714-12 2.8572q-10.2857 0-26.8571-18.5714t-32.5715-37.4286-25.1428-18.8572q-4 0-9.4286 2t-8.8571 3.7143-9.7143 5.4286-8 4.8571q-56.5714 31.4286-97.4286 72.2858t-72.2857 97.4285q-1.1429 1.7143-4.8571 8t-5.4286 9.7143-3.7143 8.8572-2 9.4285q0 7.4286 11.7143 19.1429t25.7143 22 25.7143 22.5714 11.7142 20.8572q0 5.7143-2.8571 12t-8.5714 14.2857-7.4286 10.8571q-1.7143 3.4286-8.5714 16.2857t-14.2857 26-15.1429 27.1429-14.2857 23.1428-9.4286 10.2858-9.1428 1.1428q-27.4286 0-57.7143-12.5714-26.2857-12-45.7143-54t-19.4286-74.5714q0-9.1429 1.4286-19.4286t2.8571-17.4286 5.1429-18.8571 5.7143-16.8572 7.1428-18.8571 6.2857-17.1429q34.2857-93.7143 123.7143-183.1428t183.1429-123.7143q3.4286-1.1429 17.1428-6.2857t18.8572-7.1429 16.8571-5.7143 18.8572-5.1428 17.4285-2.8572 19.4286-1.4285q32.5714 0 74.5714 19.4285t54 45.7143q12.5714 30.2857 12.5715 57.7143zM877.7143 525v-548.5714q0-68-48.2857-116.2857t-116.2857-48.2858h-548.5715q-68 0-116.2857 48.2858t-48.2857 116.2857v548.5714q0 68 48.2857 116.2857t116.2857 48.2857h548.5715q68 0 116.2857-48.2857t48.2857-116.2857z"  horiz-adv-x="877" vert-adv-y="1024"  />

      
      <glyph glyph-name="uniF0DA" unicode="&#xF0DA;" d="M329.1429 250.7143q0-14.8571-10.8572-25.7143l-256-256q-10.8571-10.8571-25.7143-10.8571t-25.7143 10.8571-10.8571 25.7143v512q0 14.8571 10.8571 25.7143t25.7143 10.8571 25.7143-10.8571l256-256q10.8571-10.8571 10.8572-25.7143z"  horiz-adv-x="365" vert-adv-y="1024"  />

      
      <glyph glyph-name="uniF053" unicode="&#xF053;" d="M669.1429 590.7143l-303.4286-303.4286 303.4286-303.4286q10.8571-10.8571 10.8571-25.7142t-10.8571-25.7143l-94.8572-94.8572q-10.8571-10.8571-25.7143-10.8571t-25.7143 10.8571l-424 424q-10.8571 10.8571-10.8571 25.7143t10.8571 25.7143l424 424q10.8571 10.8571 25.7143 10.8571t25.7143-10.8571l94.8572-94.8571q10.8571-10.8571 10.8571-25.7143t-10.8571-25.7143z"  horiz-adv-x="731" vert-adv-y="1024"  />

      
      <glyph glyph-name="uniF054" unicode="&#xF054;" d="M632.5714 261.5714l-424-424q-10.8571-10.8571-25.7143-10.8571t-25.7142 10.8571l-94.8572 94.8572q-10.8571 10.8571-10.8571 25.7143t10.8571 25.7142l303.4286 303.4286-303.4286 303.4286q-10.8571 10.8571-10.8571 25.7143t10.8571 25.7143l94.8572 94.8571q10.8571 10.8571 25.7142 10.8571t25.7143-10.8571l424-424q10.8571-10.8571 10.8572-25.7143t-10.8572-25.7143z"  horiz-adv-x="731" vert-adv-y="1024"  />

      
      <glyph glyph-name="uniF133" unicode="&#xF133;" d="M73.1429-188.1429h804.5714v585.1429h-804.5714v-585.1429zM292.5714 506.7143v164.5714q0 8-5.1428 13.1429t-13.1429 5.1428h-36.5714q-8 0-13.1429-5.1428t-5.1428-13.1429v-164.5714q0-8 5.1428-13.1429t13.1429-5.1428h36.5714q8 0 13.1429 5.1428t5.1428 13.1429zM731.4286 506.7143v164.5714q0 8-5.1429 13.1429t-13.1428 5.1428h-36.5715q-8 0-13.1428-5.1428t-5.1429-13.1429v-164.5714q0-8 5.1429-13.1429t13.1428-5.1428h36.5715q8 0 13.1428 5.1428t5.1429 13.1429zM950.8571 543.2857v-731.4286q0-29.7143-21.7142-51.4285t-51.4286-21.7143h-804.5714q-29.7143 0-51.4286 21.7143t-21.7143 51.4285v731.4286q0 29.7143 21.7143 51.4286t51.4286 21.7143h73.1428v54.8571q0 37.7143 26.8572 64.5714t64.5714 26.8572h36.5714q37.7143 0 64.5714-26.8572t26.8572-64.5714v-54.8571h219.4286v54.8571q0 37.7143 26.8571 64.5714t64.5714 26.8572h36.5715q37.7143 0 64.5714-26.8572t26.8571-64.5714v-54.8571h73.1429q29.7143 0 51.4286-21.7143t21.7142-51.4286z"  horiz-adv-x="950" vert-adv-y="1024"  />

      
      <glyph glyph-name="uniF068" unicode="&#xF068;" d="M804.5714 342.1429v-109.7143q0-22.8571-16-38.8572t-38.8571-16h-694.8572q-22.8571 0-38.8571 16t-16 38.8572v109.7143q0 22.8571 16 38.8571t38.8571 16h694.8572q22.8571 0 38.8571-16t16-38.8571z"  horiz-adv-x="804" vert-adv-y="1024"  />

      
      <glyph glyph-name="uniF0DE" unicode="&#xF0DE;" d="M585.1429 360.4286q0-14.8571-10.8572-25.7143t-25.7143-10.8572h-512q-14.8571 0-25.7143 10.8572t-10.8571 25.7143 10.8571 25.7143l256 256q10.8571 10.8571 25.7143 10.8571t25.7143-10.8571l256-256q10.8571-10.8571 10.8572-25.7143z"  horiz-adv-x="585" vert-adv-y="1024"  />

      
      <glyph glyph-name="uniF0DD" unicode="&#xF0DD;" d="M585.1429 141q0-14.8571-10.8572-25.7143l-256-256q-10.8571-10.8571-25.7143-10.8571t-25.7143 10.8571l-256 256q-10.8571 10.8571-10.8571 25.7143t10.8571 25.7143 25.7143 10.8571h512q14.8571 0 25.7143-10.8571t10.8572-25.7143z"  horiz-adv-x="585" vert-adv-y="1024"  />

      
      <glyph glyph-name="uniF013" unicode="&#xF013;" d="M585.1429 250.7143q0 60.5714-42.8572 103.4286t-103.4286 42.8571-103.4285-42.8571-42.8572-103.4286 42.8572-103.4286 103.4285-42.8571 103.4286 42.8571 42.8572 103.4286zM877.7143 313v-126.8571q0-6.8571-4.5714-13.1429t-11.4286-7.4286l-105.7143-16q-10.8571-30.8571-22.2857-52 20-28.5714 61.1428-78.8571 5.7143-6.8571 5.7143-14.2857t-5.1428-13.1429q-15.4286-21.1429-56.5715-61.7143t-53.7142-40.5714q-6.8571 0-14.8572 5.1429l-78.8571 61.7142q-25.1429-13.1429-52-21.7142-9.1429-77.7143-16.5715-106.2858-4-16-20.5714-16h-126.8571q-8 0-14 4.8572t-6.5715 12.2857l-16 105.1429q-28 9.1429-51.4285 21.1428l-80.5715-61.1428q-5.7143-5.1429-14.2857-5.1429-8 0-14.2857 6.2857-72 65.1429-94.2857 96-4 5.7143-4 13.1429 0 6.8571 4.5714 13.1428 8.5714 12 29.1429 38t30.8571 40.2857q-15.4286 28.5714-23.4285 56.5715l-104.5715 15.4285q-7.4286 1.1429-12 7.1429t-4.5714 13.4286v126.8571q0 6.8571 4.5714 13.1429t10.8572 7.4285l106.2857 16q8 26.2857 22.2857 52.5715-22.8571 32.5714-61.1429 78.8571-5.7143 6.8571-5.7142 13.7143 0 5.7143 5.1428 13.1429 14.8571 20.5714 56.2857 61.4285t54 40.8572q7.4286 0 14.8572-5.7143l78.8571-61.1429q25.1429 13.1429 52 21.7143 9.1429 77.7143 16.5714 106.2857 4 16 20.5715 16h126.8571q8 0 14-4.8571t6.5714-12.2857l16-105.1429q28-9.1429 51.4286-21.1428l81.1429 61.1428q5.1429 5.1429 13.7143 5.1429 7.4286 0 14.2857-5.7143 73.7143-68 94.2857-97.1429 4-4.5714 4-12.5714 0-6.8571-4.5714-13.1429-8.5714-12-29.1429-38t-30.8571-40.2857q14.8571-28.5714 23.4285-56l104.5715-16q7.4286-1.1429 12-7.1428t4.5714-13.4286z"  horiz-adv-x="877" vert-adv-y="1024"  />

      
      <glyph glyph-name="uniF04B" unicode="&#xF04B;" d="M790.8571 233l-758.8571-421.7143q-13.1429-7.4286-22.5714-1.7143t-9.4286 20.5715v841.1428q0 14.8571 9.4286 20.5714t22.5714-1.7142l758.8571-421.7143q13.1429-7.4286 13.1429-17.7143t-13.1429-17.7143z"  horiz-adv-x="804" vert-adv-y="1024"  />

      
      <glyph glyph-name="uniF04D" unicode="&#xF04D;" d="M877.7143 653v-804.5714q0-14.8571-10.8572-25.7143t-25.7142-10.8572h-804.5715q-14.8571 0-25.7143 10.8572t-10.8571 25.7143v804.5714q0 14.8571 10.8571 25.7143t25.7143 10.8571h804.5715q14.8571 0 25.7142-10.8571t10.8572-25.7143z"  horiz-adv-x="877" vert-adv-y="1024"  />

      
      <glyph glyph-name="uniF060" unicode="&#xF060;" d="M877.7143 250.7143v-73.1429q0-30.2857-18.5714-51.7143t-48.2858-21.4285h-402.2857l167.4286-168q21.7143-20.5714 21.7143-51.4286t-21.7143-51.4286l-42.8571-43.4285q-21.1429-21.1429-51.4286-21.1429-29.7143 0-52 21.1429l-372 372.5714q-21.1429 21.1429-21.1429 51.4286 0 29.7143 21.1429 52l372 371.4285q21.7143 21.7143 52 21.7143 29.7143 0 51.4286-21.7143l42.8571-42.2857q21.7143-21.7143 21.7143-52t-21.7143-52l-167.4286-167.4286h402.2857q29.7143 0 48.2858-21.4285t18.5714-51.7143z"  horiz-adv-x="877" vert-adv-y="1024"  />

      
      <glyph glyph-name="uniF044" unicode="&#xF044;" d="M507.4286 86.1429l66.2857 66.2857-86.8572 86.8571-66.2857-66.2857v-32h54.8572v-54.8571h32zM758.8571 497.5714q-9.1429 9.1429-18.8571-0.5714l-200-200q-9.7143-9.7143-0.5714-18.8571t18.8571 0.5714l200 200q9.7143 9.7143 0.5714 18.8571zM804.5714 158.1429v-108.5715q0-68-48.2857-116.2857t-116.2857-48.2857h-475.4286q-68 0-116.2857 48.2857t-48.2857 116.2857v475.4286q0 68 48.2857 116.2857t116.2857 48.2857h475.4286q36 0 66.8571-14.2857 8.5714-4 10.2858-13.1428 1.7143-9.7143-5.1429-16.5715l-28-28q-8-8-18.2857-4.5714-13.1429 3.4286-25.7143 3.4286h-475.4286q-37.7143 0-64.5714-26.8572t-26.8571-64.5714v-475.4286q0-37.7143 26.8571-64.5714t64.5714-26.8571h475.4286q37.7143 0 64.5714 26.8571t26.8572 64.5714v72q0 7.4286 5.1428 12.5715l36.5715 36.5714q8.5714 8.5714 20 4t11.4285-16.5714zM749.7143 579.8571l164.5714-164.5714-384-384h-164.5714v164.5714zM1003.4286 504.4286l-52.5715-52.5715-164.5714 164.5715 52.5714 52.5714q16 16 38.8572 16t38.8571-16l86.8572-86.8571q16-16 16-38.8572t-16-38.8571z"  horiz-adv-x="1024" vert-adv-y="1024"  />

      
      <glyph glyph-name="uniF02F" unicode="&#xF02F;" d="M219.4286-115h512v146.2857h-512v-146.2857zM219.4286 250.7143h512v219.4286h-91.4286q-22.8571 0-38.8571 16t-16 38.8571v91.4286h-365.7143v-365.7143zM877.7143 214.1429q0 14.8571-10.8572 25.7142t-25.7142 10.8572-25.7143-10.8572-10.8572-25.7142 10.8572-25.7143 25.7143-10.8572 25.7142 10.8572 10.8572 25.7143zM950.8571 214.1429v-237.7143q0-7.4286-5.4285-12.8572t-12.8572-5.4285h-128v-91.4286q0-22.8571-16-38.8572t-38.8571-16h-548.5714q-22.8571 0-38.8572 16t-16 38.8572v91.4286h-128q-7.4286 0-12.8571 5.4285t-5.4286 12.8572v237.7143q0 45.1429 32.2857 77.4285t77.4286 32.2857h36.5714v310.8572q0 22.8571 16 38.8571t38.8572 16h384q22.8571 0 50.2857-11.4285t43.4285-27.4286l86.8572-86.8572q16-16 27.4286-43.4285t11.4285-50.2857v-146.2858h36.5715q45.1429 0 77.4285-32.2857t32.2857-77.4285z"  horiz-adv-x="950" vert-adv-y="1024"  />

      
      <glyph glyph-name="uniF0C7" unicode="&#xF0C7;" d="M219.4286-115h438.8571v219.4286h-438.8571v-219.4286zM731.4286-115h73.1428v512q0 8-5.7143 22t-11.4285 19.7143l-160.5715 160.5714q-5.7143 5.7143-19.4285 11.4286t-22.2857 5.7143v-237.7143q0-22.8571-16-38.8572t-38.8572-16h-329.1428q-22.8571 0-38.8572 16t-16 38.8572v237.7143h-73.1428v-731.4286h73.1428v237.7143q0 22.8571 16 38.8571t38.8572 16h475.4285q22.8571 0 38.8572-16t16-38.8571v-237.7143zM512 415.2857v182.8572q0 7.4286-5.4286 12.8571t-12.8571 5.4286h-109.7143q-7.4286 0-12.8571-5.4286t-5.4286-12.8571v-182.8572q0-7.4286 5.4286-12.8571t12.8571-5.4286h109.7143q7.4286 0 12.8571 5.4286t5.4286 12.8571zM877.7143 397v-530.2857q0-22.8571-16-38.8572t-38.8572-16h-768q-22.8571 0-38.8571 16t-16 38.8572v768q0 22.8571 16 38.8571t38.8571 16h530.2858q22.8571 0 50.2857-11.4285t43.4285-27.4286l160-160q16-16 27.4286-43.4286t11.4286-50.2857z"  horiz-adv-x="877" vert-adv-y="1024"  />

      
      <glyph glyph-name="uniF00E" unicode="&#xF00E;" d="M585.1429 305.5714v-36.5714q0-7.4286-5.4286-12.8571t-12.8572-5.4286h-128v-128q0-7.4286-5.4285-12.8572t-12.8572-5.4285h-36.5714q-7.4286 0-12.8571 5.4285t-5.4286 12.8572v128h-128q-7.4286 0-12.8572 5.4286t-5.4285 12.8571v36.5714q0 7.4286 5.4285 12.8572t12.8572 5.4285h128v128q0 7.4286 5.4286 12.8572t12.8571 5.4286h36.5714q7.4286 0 12.8572-5.4286t5.4285-12.8572v-128h128q7.4286 0 12.8572-5.4285t5.4286-12.8572zM658.2857 287.2857q0 105.7143-75.1428 180.8572t-180.8572 75.1428-180.8571-75.1428-75.1429-180.8572 75.1429-180.8571 180.8571-75.1429 180.8572 75.1429 75.1428 180.8571zM950.8571-188.1429q0-30.2857-21.4285-51.7142t-51.7143-21.4286q-30.8571 0-51.4286 21.7143l-196 195.4285q-102.2857-70.8571-228-70.8571-81.7143 0-156.2857 31.7143t-128.5714 85.7143-85.7143 128.5714-31.7143 156.2857 31.7143 156.2857 85.7143 128.5715 128.5714 85.7142 156.2857 31.7143 156.2857-31.7143 128.5715-85.7142 85.7142-128.5715 31.7143-156.2857q0-125.7143-70.8571-228l196-196q21.1429-21.1429 21.1428-51.4286z"  horiz-adv-x="950" vert-adv-y="1024"  />

      
      <glyph glyph-name="uniF002" unicode="&#xF002;" d="M658.2857 287.2857q0 105.7143-75.1428 180.8572t-180.8572 75.1428-180.8571-75.1428-75.1429-180.8572 75.1429-180.8571 180.8571-75.1429 180.8572 75.1429 75.1428 180.8571zM950.8571-188.1429q0-29.7143-21.7142-51.4285t-51.4286-21.7143q-30.8571 0-51.4286 21.7143l-196 195.4285q-102.2857-70.8571-228-70.8571-81.7143 0-156.2857 31.7143t-128.5714 85.7143-85.7143 128.5714-31.7143 156.2857 31.7143 156.2857 85.7143 128.5715 128.5714 85.7142 156.2857 31.7143 156.2857-31.7143 128.5715-85.7142 85.7142-128.5715 31.7143-156.2857q0-125.7143-70.8571-228l196-196q21.1429-21.1429 21.1428-51.4286z"  horiz-adv-x="950" vert-adv-y="1024"  />

      
      <glyph glyph-name="uniF010" unicode="&#xF010;" d="M585.1429 305.5714v-36.5714q0-7.4286-5.4286-12.8571t-12.8572-5.4286h-329.1428q-7.4286 0-12.8572 5.4286t-5.4285 12.8571v36.5714q0 7.4286 5.4285 12.8572t12.8572 5.4285h329.1428q7.4286 0 12.8572-5.4285t5.4286-12.8572zM658.2857 287.2857q0 105.7143-75.1428 180.8572t-180.8572 75.1428-180.8571-75.1428-75.1429-180.8572 75.1429-180.8571 180.8571-75.1429 180.8572 75.1429 75.1428 180.8571zM950.8571-188.1429q0-30.2857-21.4285-51.7142t-51.7143-21.4286q-30.8571 0-51.4286 21.7143l-196 195.4285q-102.2857-70.8571-228-70.8571-81.7143 0-156.2857 31.7143t-128.5714 85.7143-85.7143 128.5714-31.7143 156.2857 31.7143 156.2857 85.7143 128.5715 128.5714 85.7142 156.2857 31.7143 156.2857-31.7143 128.5715-85.7142 85.7142-128.5715 31.7143-156.2857q0-125.7143-70.8571-228l196-196q21.1429-21.1429 21.1428-51.4286z"  horiz-adv-x="950" vert-adv-y="1024"  />

      
      <glyph glyph-name="uniF0B2" unicode="&#xF0B2;" d="M733.1429 453.5714l-202.8572-202.8571 202.8572-202.8572 82.2857 82.2858q16.5714 17.7143 40 8 22.2857-9.7143 22.2857-33.7143v-256q0-14.8571-10.8572-25.7143t-25.7142-10.8572h-256q-24 0-33.7143 22.8572-9.7143 22.2857 8 39.4286l82.2857 82.2857-202.8572 202.8571-202.8571-202.8571 82.2857-82.2857q17.7143-17.1429 8-39.4286-9.7143-22.8571-33.7143-22.8572h-256q-14.8571 0-25.7143 10.8572t-10.8571 25.7143v256q0 24 22.8571 33.7143 22.2857 9.7143 39.4286-8l82.2857-82.2858 202.8572 202.8572-202.8572 202.8571-82.2857-82.2857q-10.8571-10.8571-25.7143-10.8571-6.8571 0-13.7143 2.8571-22.8571 9.7143-22.8571 33.7143v256q0 14.8571 10.8571 25.7143t25.7143 10.8571h256q24 0 33.7143-22.8571 9.7143-22.2857-8-39.4286l-82.2857-82.2857 202.8571-202.8571 202.8572 202.8571-82.2857 82.2857q-17.7143 17.1429-8 39.4286 9.7143 22.8571 33.7143 22.8571h256q14.8571 0 25.7142-10.8571t10.8572-25.7143v-256q0-24-22.2857-33.7143-7.4286-2.8571-14.2857-2.8571-14.8571 0-25.7143 10.8571z"  horiz-adv-x="877" vert-adv-y="1024"  />

      
      <glyph glyph-name="uniF0E2" unicode="&#xF0E2;" d="M877.7143 250.7143q0-89.1429-34.8572-170.2857t-93.7142-140-140-93.7143-170.2858-34.8572q-98.2857 0-186.8571 41.4286t-150.8571 116.8572q-4 5.7143-3.7143 12.8571t4.8571 11.7143l78.2857 78.8571q5.7143 5.1429 14.2857 5.1429 9.1429-1.1429 13.1429-6.8572 41.7143-54.2857 102.2857-84t128.5714-29.7142q59.4286 0 113.4286 23.1428t93.4286 62.5714 62.5714 93.4286 23.1429 113.4286-23.1429 113.4286-62.5714 93.4285-93.4286 62.5715-113.4286 23.1428q-56 0-107.4285-20.2857t-91.4286-58l78.2857-78.8571q17.7143-17.1429 8-39.4286-9.7143-22.8571-33.7143-22.8572h-256q-14.8571 0-25.7143 10.8572t-10.8571 25.7143v256q0 24 22.8571 33.7143 22.2857 9.7143 39.4286-8l74.2857-73.7143q61.1429 57.7143 139.7143 89.4285t162.5714 31.7143q89.1429 0 170.2858-34.8571t140-93.7143 93.7142-140 34.8572-170.2857z"  horiz-adv-x="877" vert-adv-y="1024"  />

      
      <glyph glyph-name="uniF01E" unicode="&#xF01E;" d="M877.7143 616.4286v-256q0-14.8571-10.8572-25.7143t-25.7142-10.8572h-256q-24 0-33.7143 22.8572-9.7143 22.2857 8 39.4286l78.8571 78.8571q-84.5714 78.2857-199.4286 78.2857-59.4286 0-113.4285-23.1428t-93.4286-62.5715-62.5714-93.4285-23.1429-113.4286 23.1429-113.4286 62.5714-93.4286 93.4286-62.5714 113.4285-23.1428q68 0 128.5715 29.7142t102.2857 84q4 5.7143 13.1428 6.8572 8 0 14.2858-5.1429l78.2857-78.8571q5.1429-4.5714 5.4285-11.7143t-4.2857-12.8571q-62.2857-75.4286-150.8571-116.8572t-186.8572-41.4286q-89.1429 0-170.2857 34.8572t-140 93.7143-93.7143 140-34.8571 170.2857 34.8571 170.2857 93.7143 140 140 93.7143 170.2857 34.8571q84 0 162.5715-31.7143t139.7143-89.4285l74.2857 73.7143q16.5714 17.7143 40 8 22.2857-9.7143 22.2857-33.7143z"  horiz-adv-x="877" vert-adv-y="1024"  />

      
      <glyph glyph-name="uniF006" unicode="&#xF006;" d="M649.7143 189l174.8571 169.7143-241.1428 35.4286-108 218.2857-108-218.2857-241.1429-35.4286 174.8572-169.7143-41.7143-240.5714 216 113.7143 215.4285-113.7143zM950.8571 393q0-12.5714-14.8571-27.4286l-207.4286-202.2857 49.1429-285.7143q0.5714-4 0.5714-11.4285 0-28.5714-23.4286-28.5715-10.8571 0-22.8571 6.8572l-256.5714 134.8571-256.5715-134.8571q-12.5714-6.8571-22.8571-6.8572-12 0-18 8.2857t-6 20.2858q0 3.4286 1.1429 11.4285l49.1428 285.7143-208 202.2857q-14.2857 15.4286-14.2857 27.4286 0 21.1429 32 26.2857l286.8571 41.7143 128.5715 260q10.8571 23.4286 28 23.4286t28-23.4286l128.5714-260 286.8571-41.7143q32-5.1429 32-26.2857z"  horiz-adv-x="950" vert-adv-y="1024"  />

      
      <glyph glyph-name="uniF005" unicode="&#xF005;" d="M950.8571 393q0-12.5714-14.8571-27.4286l-207.4286-202.2857 49.1429-285.7143q0.5714-4 0.5714-11.4285 0-12-6-20.2858t-17.4286-8.2857q-10.8571 0-22.8571 6.8572l-256.5714 134.8571-256.5715-134.8571q-12.5714-6.8571-22.8571-6.8572-12 0-18 8.2857t-6 20.2858q0 3.4286 1.1429 11.4285l49.1428 285.7143-208 202.2857q-14.2857 15.4286-14.2857 27.4286 0 21.1429 32 26.2857l286.8571 41.7143 128.5715 260q10.8571 23.4286 28 23.4286t28-23.4286l128.5714-260 286.8571-41.7143q32-5.1429 32-26.2857z"  horiz-adv-x="950" vert-adv-y="1024"  />

      
      <glyph glyph-name="uniF00C" unicode="&#xF00C;" d="M954.8571 439.2857q0-22.8571-16-38.8571l-413.7142-413.7143-77.7143-77.7143q-16-16-38.8572-16t-38.8571 16l-77.7143 77.7143-206.8571 206.8571q-16 16-16 38.8572t16 38.8571l77.7142 77.7143q16 16 38.8572 16t38.8571-16l168-168.5714 374.8572 375.4285q16 16 38.8571 16t38.8572-16l77.7142-77.7142q16-16 16-38.8572z"  horiz-adv-x="1024" vert-adv-y="1024"  />

      
      <glyph glyph-name="uniF056" unicode="&#xF056;" d="M694.8571 214.1429v73.1428q0 14.8571-10.8571 25.7143t-25.7143 10.8571h-438.8571q-14.8571 0-25.7143-10.8571t-10.8572-25.7143v-73.1428q0-14.8571 10.8572-25.7143t25.7143-10.8572h438.8571q14.8571 0 25.7143 10.8572t10.8571 25.7143zM877.7143 250.7143q0-119.4286-58.8572-220.2857t-159.7142-159.7143-220.2858-58.8572-220.2857 58.8572-159.7143 159.7143-58.8571 220.2857 58.8571 220.2857 159.7143 159.7143 220.2857 58.8571 220.2858-58.8571 159.7142-159.7143 58.8572-220.2857z"  horiz-adv-x="877" vert-adv-y="1024"  />

      
      <glyph glyph-name="uniF01D" unicode="&#xF01D;" d="M676.5714 250.7143q0-21.1429-18.2857-31.4286l-310.8571-182.8571q-8.5714-5.1429-18.2857-5.1429-9.1429 0-18.2858 4.5714-18.2857 10.8571-18.2857 32v365.7143q0 21.1429 18.2857 32 18.8571 10.2857 36.5715-0.5714l310.8571-182.8571q18.2857-10.2857 18.2857-31.4286zM749.7143 250.7143q0 84.5714-41.7143 156t-113.1429 113.1428-156 41.7143-156-41.7143-113.1428-113.1428-41.7143-156 41.7143-156 113.1428-113.1429 156-41.7143 156 41.7143 113.1429 113.1429 41.7143 156zM877.7143 250.7143q0-119.4286-58.8572-220.2857t-159.7142-159.7143-220.2858-58.8572-220.2857 58.8572-159.7143 159.7143-58.8571 220.2857 58.8571 220.2857 159.7143 159.7143 220.2857 58.8571 220.2858-58.8571 159.7142-159.7143 58.8572-220.2857z"  horiz-adv-x="877" vert-adv-y="1024"  />

      
      <glyph glyph-name="uniF017" unicode="&#xF017;" d="M512 451.8571v-256q0-8-5.1429-13.1428t-13.1428-5.1429h-182.8572q-8 0-13.1428 5.1429t-5.1429 13.1428v36.5715q0 8 5.1429 13.1428t13.1428 5.1429h128v201.1428q0 8 5.1429 13.1429t13.1429 5.1429h36.5714q8 0 13.1428-5.1429t5.1429-13.1429zM749.7143 250.7143q0 84.5714-41.7143 156t-113.1429 113.1428-156 41.7143-156-41.7143-113.1428-113.1428-41.7143-156 41.7143-156 113.1428-113.1429 156-41.7143 156 41.7143 113.1429 113.1429 41.7143 156zM877.7143 250.7143q0-119.4286-58.8572-220.2857t-159.7142-159.7143-220.2858-58.8572-220.2857 58.8572-159.7143 159.7143-58.8571 220.2857 58.8571 220.2857 159.7143 159.7143 220.2857 58.8571 220.2858-58.8571 159.7142-159.7143 58.8572-220.2857z"  horiz-adv-x="877" vert-adv-y="1024"  />

      
      <glyph glyph-name="uniF095" unicode="&#xF095;" d="M804.5714 54.1429q0-15.4286-5.7143-40.2858t-12-39.1428q-12-28.5714-69.7142-60.5714-53.7143-29.1429-106.2858-29.1429-15.4286 0-30 2t-32.8571 7.1429-27.1429 8.2857-31.7142 11.7143-28 10.2857q-56 20-100 47.4285-73.1429 45.1429-151.1429 123.1429t-123.1429 151.1429q-27.4286 44-47.4285 100-1.7143 5.1429-10.2857 28t-11.7143 31.7142-8.2857 27.1429-7.1429 32.8571-2 30q0 52.5714 29.1429 106.2858 32 57.7143 60.5714 69.7142 14.2857 6.2857 39.1428 12t40.2858 5.7143q8 0 12-1.7143 10.2857-3.4286 30.2857-43.4285 6.2857-10.8571 17.1428-30.8572t20-36.2857 17.7143-30.5714q1.7143-2.2857 10-14.2857t12.2857-20.2857 4-16.2858q0-11.4286-16.2857-28.5714t-35.4286-31.4286-35.4285-30.2857-16.2857-26.2857q0-5.1429 2.8571-12.8571t4.8571-11.7143 8-13.7143 6.5715-10.8571q43.4286-78.2857 99.4285-134.2858t134.2858-99.4285q1.1429-0.5714 10.8571-6.5715t13.7143-8 11.7143-4.8571 12.8571-2.8571q10.2857 0 26.2857 16.2857t30.2857 35.4285 31.4286 35.4286 28.5714 16.2857q8 0 16.2858-4t20.2857-12.2857 14.2857-10q14.2857-8.5714 30.5714-17.7143t36.2857-20 30.8572-17.1428q40-20 43.4285-30.2857 1.7143-4 1.7143-12z"  horiz-adv-x="804" vert-adv-y="1024"  />

      
      <glyph glyph-name="uniF05E" unicode="&#xF05E;" d="M749.7143 252.4286q0 92-49.7143 168.5714l-430.8571-430.2857q78.2857-50.8571 169.7142-50.8572 63.4286 0 120.8572 24.8572t99.1428 66.5714 66.2858 99.7143 24.5714 121.4286zM178.8571 81.5714l431.4286 430.8572q-77.1429 52-171.4286 52-84.5714 0-156-41.7143t-113.1428-113.7143-41.7143-156.5714q0-92.5714 50.8571-170.8572zM877.7143 252.4286q0-89.7143-34.8572-171.4286t-93.4285-140.5714-140-93.7143-170.5715-34.8572-170.5714 34.8572-140 93.7143-93.4286 140.5714-34.8571 171.4286 34.8571 171.1428 93.4286 140.2857 140 93.7143 170.5714 34.8572 170.5715-34.8572 140-93.7143 93.4285-140.2857 34.8572-171.1428z"  horiz-adv-x="877" vert-adv-y="1024"  />

      
      <glyph glyph-name="uniF019" unicode="&#xF019;" d="M731.4286-5.2857q0 14.8571-10.8572 25.7143t-25.7143 10.8571-25.7142-10.8571-10.8572-25.7143 10.8572-25.7143 25.7142-10.8571 25.7143 10.8571 10.8572 25.7143zM877.7143-5.2857q0 14.8571-10.8572 25.7143t-25.7142 10.8571-25.7143-10.8571-10.8572-25.7143 10.8572-25.7143 25.7143-10.8571 25.7142 10.8571 10.8572 25.7143zM950.8571 122.7143v-182.8572q0-22.8571-16-38.8571t-38.8571-16h-841.1429q-22.8571 0-38.8571 16t-16 38.8571v182.8572q0 22.8571 16 38.8571t38.8571 16h265.7143l77.1429-77.7143q33.1429-32 77.7143-32t77.7143 32l77.7142 77.7143h265.1429q22.8571 0 38.8571-16t16-38.8571zM765.1429 447.8571q9.7143-23.4286-8-40l-256-256q-10.2857-10.8571-25.7143-10.8571t-25.7143 10.8571l-256 256q-17.7143 16.5714-8 40 9.7143 22.2857 33.7143 22.2858h146.2857v256q0 14.8571 10.8571 25.7142t25.7143 10.8572h146.2857q14.8571 0 25.7143-10.8572t10.8572-25.7142v-256h146.2857q24 0 33.7143-22.2858z"  horiz-adv-x="950" vert-adv-y="1024"  />

      
      <glyph glyph-name="uniF147" unicode="&#xF147;" d="M658.2857 305.5714v-36.5714q0-8-5.1428-13.1429t-13.1429-5.1428h-475.4286q-8 0-13.1428 5.1428t-5.1429 13.1429v36.5714q0 8 5.1429 13.1429t13.1428 5.1428h475.4286q8 0 13.1429-5.1428t5.1428-13.1429zM731.4286 49.5714v475.4286q0 37.7143-26.8572 64.5714t-64.5714 26.8572h-475.4286q-37.7143 0-64.5714-26.8572t-26.8571-64.5714v-475.4286q0-37.7143 26.8571-64.5714t64.5714-26.8571h475.4286q37.7143 0 64.5714 26.8571t26.8572 64.5714zM804.5714 525v-475.4286q0-68-48.2857-116.2857t-116.2857-48.2857h-475.4286q-68 0-116.2857 48.2857t-48.2857 116.2857v475.4286q0 68 48.2857 116.2857t116.2857 48.2857h475.4286q68 0 116.2857-48.2857t48.2857-116.2857z"  horiz-adv-x="804" vert-adv-y="1024"  />

      
      <glyph glyph-name="uniF196" unicode="&#xF196;" d="M658.2857 305.5714v-36.5714q0-8-5.1428-13.1429t-13.1429-5.1428h-201.1429v-201.1429q0-8-5.1428-13.1428t-13.1429-5.1429h-36.5714q-8 0-13.1429 5.1429t-5.1428 13.1428v201.1429h-201.1429q-8 0-13.1428 5.1428t-5.1429 13.1429v36.5714q0 8 5.1429 13.1429t13.1428 5.1428h201.1429v201.1429q0 8 5.1428 13.1429t13.1429 5.1428h36.5714q8 0 13.1429-5.1428t5.1428-13.1429v-201.1429h201.1429q8 0 13.1429-5.1428t5.1428-13.1429zM731.4286 49.5714v475.4286q0 37.7143-26.8572 64.5714t-64.5714 26.8572h-475.4286q-37.7143 0-64.5714-26.8572t-26.8571-64.5714v-475.4286q0-37.7143 26.8571-64.5714t64.5714-26.8571h475.4286q37.7143 0 64.5714 26.8571t26.8572 64.5714zM804.5714 525v-475.4286q0-68-48.2857-116.2857t-116.2857-48.2857h-475.4286q-68 0-116.2857 48.2857t-48.2857 116.2857v475.4286q0 68 48.2857 116.2857t116.2857 48.2857h475.4286q68 0 116.2857-48.2857t48.2857-116.2857z"  horiz-adv-x="804" vert-adv-y="1024"  />

      
      <glyph glyph-name="uniF112" unicode="&#xF112;" d="M1024 122.7143q0-94.8571-72.5714-257.7143-1.7143-4-6-13.7143t-7.7143-17.1428-7.4286-12.5715q-6.8571-9.7143-16-9.7143-8.5714 0-13.4286 5.7143t-4.8571 14.2857q0 5.1429 1.4286 15.1429t1.4285 13.4286q2.8571 38.8571 2.8572 70.2857 0 57.7143-10 103.4286t-27.7143 79.1428-45.7143 57.7143-60.2857 39.7143-76 24.2857-88 12.2857-100.2857 3.4286h-128v-146.2857q0-14.8571-10.8572-25.7143t-25.7142-10.8572-25.7143 10.8572l-292.5715 292.5714q-10.8571 10.8571-10.8571 25.7143t10.8571 25.7143l292.5715 292.5714q10.8571 10.8571 25.7143 10.8572t25.7142-10.8572 10.8572-25.7143v-146.2857h128q407.4286 0 500-230.2857 30.2857-76.5714 30.2857-190.2857z"  horiz-adv-x="1024" vert-adv-y="1024"  />

      
      <glyph glyph-name="uniF071" unicode="&#xF071;" d="M585.1429-23v108.5714q0 8-5.4286 13.4286t-12.8572 5.4286h-109.7142q-7.4286 0-12.8572-5.4286t-5.4286-13.4286v-108.5714q0-8 5.4286-13.4286t12.8572-5.4285h109.7142q7.4286 0 12.8572 5.4285t5.4286 13.4286zM584 190.7143l10.2857 262.2857q0 6.8571-5.7143 10.8571-7.4286 6.2857-13.7143 6.2858h-125.7142q-6.2857 0-13.7143-6.2858-5.7143-4-5.7143-12l9.7143-261.1428q0-5.7143 5.7143-9.4286t13.7142-3.7143h105.7143q8 0 13.4286 3.7143t6 9.4286zM576 724.4286l438.8571-804.5715q20-36-1.1428-72-9.7143-16.5714-26.5714-26.2857t-36.2858-9.7143h-877.7142q-19.4286 0-36.2858 9.7143t-26.5714 26.2857q-21.1429 36-1.1428 72l438.8571 804.5715q9.7143 17.7143 26.8571 28t37.1429 10.2857 37.1429-10.2857 26.8571-28z"  horiz-adv-x="1024" vert-adv-y="1024"  />

      
      <glyph glyph-name="uniF10A" unicode="&#xF10A;" d="M365.7143-41.8571q0 14.8571-10.8572 25.7142t-25.7142 10.8572-25.7143-10.8572-10.8572-25.7142 10.8572-25.7143 25.7143-10.8572 25.7142 10.8572 10.8572 25.7143zM585.1429 49.5714v548.5715q0 7.4286-5.4286 12.8571t-12.8572 5.4286h-475.4285q-7.4286 0-12.8572-5.4286t-5.4285-12.8571v-548.5715q0-7.4286 5.4285-12.8571t12.8572-5.4286h475.4285q7.4286 0 12.8572 5.4286t5.4286 12.8571zM658.2857 598.1429v-621.7143q0-37.7143-26.8571-64.5715t-64.5715-26.8571h-475.4285q-37.7143 0-64.5715 26.8571t-26.8571 64.5715v621.7143q0 37.7143 26.8571 64.5714t64.5715 26.8571h475.4285q37.7143 0 64.5715-26.8571t26.8571-64.5714z"  horiz-adv-x="658" vert-adv-y="1024"  />

      
      <glyph glyph-name="uniF164" unicode="&#xF164;" d="M146.2857-5.2857q0 14.8571-10.8571 25.7143t-25.7143 10.8571q-15.4286 0-26-10.8571t-10.5714-25.7143q0-15.4286 10.5714-26t26-10.5714q14.8571 0 25.7143 10.5714t10.8571 26zM237.7143 287.2857v-365.7143q0-14.8571-10.8572-25.7143t-25.7142-10.8571h-164.5715q-14.8571 0-25.7143 10.8571t-10.8571 25.7143v365.7143q0 14.8571 10.8571 25.7143t25.7143 10.8571h164.5715q14.8571 0 25.7142-10.8571t10.8572-25.7143zM914.2857 287.2857q0-49.1429-31.4286-85.1428 8.5714-25.1429 8.5715-43.4286 1.7143-43.4286-24.5715-78.2857 9.7143-32 0-66.8572-8.5714-32.5714-30.8571-53.7143 5.1429-64-28-103.4285-36.5714-43.4286-112.5714-44.5715h-20.5715-43.4285-9.7143q-37.7143 0-82.2857 8.8572t-69.4286 16.5714-68.8571 22.5714q-70.2857 24.5714-90.2858 25.1429-14.8571 0.5714-25.7142 11.1429t-10.8572 25.4285v366.2857q0 14.2857 10.2857 24.8572t24.5715 11.7143q13.7143 1.1429 43.4285 33.7143t57.7143 69.1428q38.8571 49.7143 57.7143 68.5714 10.2857 10.2857 17.7143 27.4286t10 27.7143 7.7143 34.5714q4 22.2857 7.1428 34.8572t11.1429 29.7143 19.4286 28.5714q10.8571 10.8571 25.7142 10.8571 26.2857 0 47.1429-6t34.2857-14.8571 22.8572-23.1429 13.7142-25.7143 6.8572-28.5714 2.8571-25.7143 0.2857-22.2857q0-21.7143-5.4285-43.4286t-10.8572-34.2857-15.7143-32q-1.7143-3.4286-5.7142-10.2857t-6.2858-12.5714-4.5714-13.7143h158.2857q44.5714 0 77.1429-32.5714t32.5714-77.1429z"  horiz-adv-x="950" vert-adv-y="1024"  />

      
      <glyph glyph-name="uniF059" unicode="&#xF059;" d="M512-23.5714v109.7143q0 8-5.1429 13.1428t-13.1428 5.1429h-109.7143q-8 0-13.1429-5.1429t-5.1428-13.1428v-109.7143q0-8 5.1428-13.1429t13.1429-5.1428h109.7143q8 0 13.1428 5.1428t5.1429 13.1429zM658.2857 360.4286q0 50.2857-31.7143 93.1428t-79.1428 66.2857-97.1429 23.4286q-138.8571 0-212-121.7143-8.5714-13.7143 4.5714-24l75.4286-57.1428q4-3.4286 10.8572-3.4286 9.1429 0 14.2857 6.8571 30.2857 38.8571 49.1428 52.5715 19.4286 13.7143 49.1429 13.7143 27.4286 0 48.8571-14.8572t21.4286-33.7143q0-21.7143-11.4286-34.8571t-38.8571-25.7143q-36-16-66-49.4286t-30-71.7143v-20.5714q0-8 5.1428-13.1428t13.1429-5.1429h109.7143q8 0 13.1428 5.1429t5.1429 13.1428q0 10.8571 12.2857 28.2857t31.1429 28.2857q18.2857 10.2857 28 16.2858t26.2857 20 25.4286 27.4285 16 34.5715 7.1428 46.2857zM877.7143 250.7143q0-119.4286-58.8572-220.2857t-159.7142-159.7143-220.2858-58.8572-220.2857 58.8572-159.7143 159.7143-58.8571 220.2857 58.8571 220.2857 159.7143 159.7143 220.2857 58.8571 220.2858-58.8571 159.7142-159.7143 58.8572-220.2857z"  horiz-adv-x="877" vert-adv-y="1024"  />

      
      <glyph glyph-name="uniF0D8" unicode="&#xF0D8;" d="M585.1429 67.8571q0-14.8571-10.8572-25.7142t-25.7143-10.8572h-512q-14.8571 0-25.7143 10.8572t-10.8571 25.7142 10.8571 25.7143l256 256q10.8571 10.8571 25.7143 10.8572t25.7143-10.8572l256-256q10.8571-10.8571 10.8572-25.7143z"  horiz-adv-x="585" vert-adv-y="1024"  />

      
      <glyph glyph-name="uniF0F6" unicode="&#xF0F6;" d="M838.8571 545.5714q16-16 27.4286-43.4285t11.4286-50.2858v-658.2857q0-22.8571-16-38.8571t-38.8572-16h-768q-22.8571 0-38.8571 16t-16 38.8571v914.2857q0 22.8571 16 38.8572t38.8571 16h512q22.8571 0 50.2858-11.4286t43.4285-27.4286zM585.1429 685v-214.8571h214.8571q-5.7143 16.5714-12.5714 23.4285l-178.8572 178.8572q-6.8571 6.8571-23.4285 12.5714zM804.5714-188.1429v585.1429h-237.7143q-22.8571 0-38.8571 16t-16 38.8571v237.7143h-438.8571v-877.7143h731.4285zM219.4286 305.5714q0 8 5.1428 13.1429t13.1429 5.1428h402.2857q8 0 13.1429-5.1428t5.1428-13.1429v-36.5714q0-8-5.1428-13.1429t-13.1429-5.1428h-402.2857q-8 0-13.1429 5.1428t-5.1428 13.1429v36.5714zM640 177.5714q8 0 13.1429-5.1428t5.1428-13.1429v-36.5714q0-8-5.1428-13.1429t-13.1429-5.1428h-402.2857q-8 0-13.1429 5.1428t-5.1428 13.1429v36.5714q0 8 5.1428 13.1429t13.1429 5.1428h402.2857zM640 31.2857q8 0 13.1429-5.1428t5.1428-13.1429v-36.5714q0-8-5.1428-13.1429t-13.1429-5.1428h-402.2857q-8 0-13.1429 5.1428t-5.1428 13.1429v36.5714q0 8 5.1428 13.1429t13.1429 5.1428h402.2857z"  horiz-adv-x="877" vert-adv-y="1024"  />

      
      <glyph glyph-name="uniF003" unicode="&#xF003;" d="M950.8571-96.7143v438.8572q-18.2857-20.5714-39.4285-37.7143-153.1429-117.7143-243.4286-193.1429-29.1429-24.5714-47.4286-38.2857t-49.4285-27.7143-58.5715-14h-0.5714-0.5714q-27.4286 0-58.5715 14t-49.4285 27.7143-47.4286 38.2857q-90.2857 75.4286-243.4286 193.1429-21.1429 17.1429-39.4285 37.7143v-438.8572q0-7.4286 5.4285-12.8571t12.8572-5.4286h841.1428q7.4286 0 12.8572 5.4286t5.4285 12.8571zM950.8571 503.8571v6.2858 7.7142t-0.2857 7.4286-1.7143 7.1429-3.1428 5.1428-5.1429 4.2857-8 1.4286h-841.1428q-7.4286 0-12.8572-5.4286t-5.4285-12.8571q0-96 84-162.2857 110.2857-86.8571 229.1428-181.1429 3.4286-2.8571 20-16.8571t26.2857-21.4286 25.4286-18 28.8571-15.7143 24.5715-5.1428h0.5714 0.5714q11.4286 0 24.5715 5.1428t28.8571 15.7143 25.4286 18 26.2857 21.4286 20 16.8571q118.8571 94.2857 229.1428 181.1429 30.8571 24.5714 57.4286 66t26.5714 75.1428zM1024 525v-621.7143q0-37.7143-26.8571-64.5714t-64.5715-26.8572h-841.1428q-37.7143 0-64.5715 26.8572t-26.8571 64.5714v621.7143q0 37.7143 26.8571 64.5714t64.5715 26.8572h841.1428q37.7143 0 64.5715-26.8572t26.8571-64.5714z"  horiz-adv-x="1024" vert-adv-y="1024"  />

      
      <glyph glyph-name="uniF0F4" unicode="&#xF0F4;" d="M950.8571 397q0 45.7143-32 77.7143t-77.7142 32h-36.5715v-219.4286h36.5715q45.7143 0 77.7142 32t32 77.7143zM0-41.8571h1024q0-60.5714-42.8571-103.4286t-103.4286-42.8572h-731.4286q-60.5714 0-103.4286 42.8572t-42.8571 103.4286zM1060.5714 397q0-90.8571-64.2857-155.1429t-155.1428-64.2857h-36.5715v-18.2857q0-52.5714-37.7143-90.2857t-90.2857-37.7143h-402.2857q-52.5714 0-90.2857 37.7143t-37.7143 90.2857v420.5714q0 14.8571 10.8572 25.7143t25.7142 10.8572h658.2858q90.8571 0 155.1428-64.2857t64.2857-155.1429z"  horiz-adv-x="1097" vert-adv-y="1024"  />

      
      <glyph glyph-name="uniF01C" unicode="&#xF01C;" d="M584.5714 214.1429h180.5715q-0.5714 1.7143-1.4286 4.5714t-1.4286 4.5714l-121.1428 283.4286h-404.5715l-121.1428-283.4286q-0.5714-1.1429-1.4286-4.5714t-1.4286-4.5714h180.5715l54.2857-109.7143h182.8571zM877.7143 197v-275.4286q0-14.8571-10.8572-25.7143t-25.7142-10.8571h-804.5715q-14.8571 0-25.7143 10.8571t-10.8571 25.7143v275.4286q0 35.4286 14.2857 70.2857l136 315.4286q5.7143 14.2857 20.8572 24t30 9.7143h475.4285q14.8571 0 30-9.7143t20.8572-24l136-315.4286q14.2857-34.8571 14.2857-70.2857z"  horiz-adv-x="877" vert-adv-y="1024"  />

      
      <glyph glyph-name="uniF02D" unicode="&#xF02D;" d="M936.5714 489.5714q22.8571-32.5714 10.2857-73.7143l-157.1428-517.7142q-10.8571-36.5714-43.7143-61.4286t-70-24.8572h-527.4286q-44 0-84.8571 30.5715t-56.8572 75.1428q-13.7143 38.2857-1.1428 72.5715 0 2.2857 1.7143 15.4285t2.2857 21.1429q0.5714 4.5714-1.7143 12.2857t-1.7143 11.1429q1.1429 6.2857 4.5714 12t9.4286 13.4285 9.4286 13.4286q13.1429 21.7143 25.7143 52.2857t17.1428 52.2857q1.7143 5.7143 0.2857 17.1429t-0.2857 16q1.7143 6.2857 9.7143 16t9.7143 13.1428q12 20.5714 24 52.5715t14.2857 51.4285q0.5714 5.1429-1.4286 18.2858t0.2858 16q2.2857 7.4286 12.5714 17.4285t12.5714 12.8572q10.8571 14.8571 24.2857 48.2857t15.7143 55.1428q0.5714 4.5714-1.7143 14.5715t-1.1428 15.1428q1.1429 4.5714 5.1428 10.2857t10.2857 13.1429 9.7143 12q4.5714 6.8571 9.4286 17.4286t8.5714 20 9.1429 20.5714 11.1428 18.2857 15.1429 13.4286 20.5714 6.5714 27.1429-3.1428l-0.5714-1.7143q21.7143 5.1429 29.1428 5.1428h434.8572q42.2857 0 65.1428-32t10.2857-74.2857l-156.5714-517.7143q-20.5714-68-40.8571-87.7143t-73.4286-19.7142h-496.5714q-15.4286 0-21.7143-8.5715-6.2857-9.1429-0.5715-24.5714 13.7143-40 82.2858-40h527.4285q16.5714 0 32 8.8571t20 23.7143l171.4286 564q4 12.5714 2.8571 32.5715 21.7143-8.5714 33.7143-24.5715zM328.5714 488.4286q-2.2857-7.4286 1.1429-12.8572t11.4286-5.4285h347.4285q7.4286 0 14.5715 5.4285t9.4285 12.8572l12 36.5714q2.2857 7.4286-1.1428 12.8571t-11.4286 5.4286h-347.4286q-7.4286 0-14.5714-5.4286t-9.4286-12.8571zM281.1429 342.1429q-2.2857-7.4286 1.1428-12.8572t11.4286-5.4286h347.4286q7.4286 0 14.5714 5.4286t9.4286 12.8572l12 36.5714q2.2857 7.4286-1.1429 12.8571t-11.4286 5.4286h-347.4285q-7.4286 0-14.5715-5.4286t-9.4285-12.8571z"  horiz-adv-x="950" vert-adv-y="1024"  />

      
      <glyph glyph-name="uniF023" unicode="&#xF023;" d="M182.8571 323.8571h292.5715v109.7143q0 60.5714-42.8572 103.4286t-103.4285 42.8571-103.4286-42.8571-42.8572-103.4286v-109.7143zM658.2857 269v-329.1429q0-22.8571-16-38.8571t-38.8571-16h-548.5715q-22.8571 0-38.8571 16t-16 38.8571v329.1429q0 22.8571 16 38.8571t38.8571 16h18.2858v109.7143q0 105.1429 75.4285 180.5715t180.5715 75.4285 180.5714-75.4285 75.4286-180.5715v-109.7143h18.2857q22.8571 0 38.8571-16t16-38.8571z"  horiz-adv-x="658" vert-adv-y="1024"  />

      
      <glyph glyph-name="uniF10C" unicode="&#xF10C;" d="M438.8571 561.5714q-84.5714 0-156-41.7143t-113.1428-113.1428-41.7143-156 41.7143-156 113.1428-113.1429 156-41.7143 156 41.7143 113.1429 113.1429 41.7143 156-41.7143 156-113.1429 113.1428-156 41.7143zM877.7143 250.7143q0-119.4286-58.8572-220.2857t-159.7142-159.7143-220.2858-58.8572-220.2857 58.8572-159.7143 159.7143-58.8571 220.2857 58.8571 220.2857 159.7143 159.7143 220.2857 58.8571 220.2858-58.8571 159.7142-159.7143 58.8572-220.2857z"  horiz-adv-x="877" vert-adv-y="1024"  />

      
      <glyph glyph-name="uniF05A" unicode="&#xF05A;" d="M585.1429-23.5714v91.4285q0 8-5.1429 13.1429t-13.1429 5.1429h-54.8571v292.5714q0 8-5.1429 13.1428t-13.1428 5.1429h-182.8572q-8 0-13.1428-5.1429t-5.1429-13.1428v-91.4286q0-8 5.1429-13.1428t13.1428-5.1429h54.8572v-182.8571h-54.8572q-8 0-13.1428-5.1429t-5.1429-13.1429v-91.4285q0-8 5.1429-13.1429t13.1428-5.1428h256q8 0 13.1429 5.1428t5.1429 13.1429zM512 488.4286v91.4285q0 8-5.1429 13.1429t-13.1428 5.1429h-109.7143q-8 0-13.1429-5.1429t-5.1428-13.1429v-91.4285q0-8 5.1428-13.1429t13.1429-5.1428h109.7143q8 0 13.1428 5.1428t5.1429 13.1429zM877.7143 250.7143q0-119.4286-58.8572-220.2857t-159.7142-159.7143-220.2858-58.8572-220.2857 58.8572-159.7143 159.7143-58.8571 220.2857 58.8571 220.2857 159.7143 159.7143 220.2857 58.8571 220.2858-58.8571 159.7142-159.7143 58.8572-220.2857z"  horiz-adv-x="877" vert-adv-y="1024"  />

      
      <glyph glyph-name="uniF149" unicode="&#xF149;" d="M18.2857 616.4286h402.2857q7.4286 0 12.8572-5.4286t5.4285-13.4286v-493.1428h109.7143q22.8571 0 33.1429-21.1429t-5.1429-39.4286l-182.8571-219.4285q-10.2857-12.5714-28-12.5715t-28 12.5715l-182.8572 219.4285q-14.8571 17.7143-5.1428 39.4286 10.2857 21.1429 33.1428 21.1429h109.7143v365.7143h-182.8571q-8 0-14.2857 6.2857l-91.4286 109.7143q-7.4286 8-2.2857 19.4285 5.1429 10.8571 16.5714 10.8572z"  horiz-adv-x="585" vert-adv-y="1024"  />

      
      <glyph glyph-name="uniF077" unicode="&#xF077;" d="M961.7143 2.1429l-94.8572-94.2858q-10.8571-10.8571-25.7142-10.8571t-25.7143 10.8571l-303.4286 303.4286-303.4286-303.4286q-10.8571-10.8571-25.7143-10.8571t-25.7142 10.8571l-94.8572 94.2858q-10.8571 10.8571-10.8571 26t10.8571 26l424 423.4285q10.8571 10.8571 25.7143 10.8572t25.7143-10.8572l424-423.4285q10.8571-10.8571 10.8571-26t-10.8571-26z"  horiz-adv-x="1024" vert-adv-y="1024"  />

      
      <glyph glyph-name="uniF078" unicode="&#xF078;" d="M961.7143 301l-424-423.4286q-10.8571-10.8571-25.7143-10.8571t-25.7143 10.8571l-424 423.4286q-10.8571 10.8571-10.8571 26t10.8571 26l94.8572 94.2857q10.8571 10.8571 25.7142 10.8572t25.7143-10.8572l303.4286-303.4286 303.4286 303.4286q10.8571 10.8571 25.7143 10.8572t25.7142-10.8572l94.8572-94.2857q10.8571-10.8571 10.8571-26t-10.8571-26z"  horiz-adv-x="1024" vert-adv-y="1024"  />

      
      <glyph glyph-name="uniF0D9" unicode="&#xF0D9;" d="M365.7143 506.7143v-512q0-14.8571-10.8572-25.7143t-25.7142-10.8571-25.7143 10.8571l-256 256q-10.8571 10.8571-10.8572 25.7143t10.8572 25.7143l256 256q10.8571 10.8571 25.7143 10.8571t25.7142-10.8571 10.8572-25.7143z"  horiz-adv-x="365" vert-adv-y="1024"  />

      

  </font>
</defs>
</svg>
